<svg width="132" height="36" viewBox="0 0 132 36" fill="none" xmlns="http://www.w3.org/2000/svg">
<rect x="1" y="1" width="34" height="34" rx="9" fill="#0F172A" stroke="#22D3EE" stroke-width="2"/>
<path d="M11 10.5H23.5C26 10.5 28 12.5 28 15C28 17.5 26 19.5 23.5 19.5H11V10.5Z" stroke="#F8FAFC" stroke-width="2.4" stroke-linejoin="round"/>
<path d="M19.5 19.5L28 28" stroke="#22D3EE" stroke-width="2.4" stroke-linecap="round"/>
<path d="M11 25.5H18" stroke="#F8FAFC" stroke-width="2.4" stroke-linecap="round"/>
<path d="M43.18 27V9.96H50.5C52.42 9.96 53.94 10.42 55.06 11.34C56.18 12.24 56.74 13.5 56.74 15.12C56.74 16.22 56.47 17.17 55.93 17.97C55.41 18.77 54.66 19.36 53.68 19.74L57.34 27H53.92L50.68 20.34H46.3V27H43.18ZM46.3 17.76H50.26C51.34 17.76 52.16 17.54 52.72 17.1C53.3 16.64 53.59 15.99 53.59 15.15C53.59 14.31 53.3 13.68 52.72 13.26C52.16 12.82 51.34 12.6 50.26 12.6H46.3V17.76ZM64.46 27.24C63.22 27.24 62.12 26.97 61.16 26.43C60.22 25.89 59.48 25.15 58.94 24.21C58.4 23.27 58.13 22.21 58.13 21.03C58.13 19.85 58.39 18.8 58.91 17.88C59.45 16.94 60.18 16.2 61.1 15.66C62.02 15.12 63.06 14.85 64.22 14.85C65.34 14.85 66.33 15.1 67.19 15.6C68.07 16.1 68.75 16.8 69.23 17.7C69.73 18.58 69.98 19.6 69.98 20.76C69.98 21.08 69.95 21.42 69.89 21.78H60.98C61.1 22.68 61.48 23.4 62.12 23.94C62.78 24.46 63.6 24.72 64.58 24.72C65.28 24.72 65.93 24.59 66.53 24.33C67.13 24.05 67.62 23.68 68 23.22L69.74 25.02C69.14 25.72 68.37 26.27 67.43 26.67C66.51 27.05 65.52 27.24 64.46 27.24ZM61.04 19.74H67.01C66.93 18.98 66.64 18.38 66.14 17.94C65.64 17.48 64.99 17.25 64.19 17.25C63.41 17.25 62.75 17.47 62.21 17.91C61.69 18.33 61.3 18.94 61.04 19.74ZM76.31 27.24C75.29 27.24 74.34 27.08 73.46 26.76C72.6 26.42 71.86 25.95 71.24 25.35L72.77 23.34C73.35 23.88 73.94 24.28 74.54 24.54C75.16 24.8 75.8 24.93 76.46 24.93C77.1 24.93 77.6 24.82 77.96 24.6C78.32 24.36 78.5 24.04 78.5 23.64C78.5 23.28 78.36 23 78.08 22.8C77.8 22.58 77.33 22.41 76.67 22.29L74.54 21.9C72.5 21.52 71.48 20.42 71.48 18.6C71.48 17.48 71.91 16.58 72.77 15.9C73.65 15.2 74.81 14.85 76.25 14.85C77.11 14.85 77.93 14.99 78.71 15.27C79.51 15.53 80.26 15.94 80.96 16.5L79.46 18.45C78.9 18.03 78.34 17.72 77.78 17.52C77.22 17.3 76.66 17.19 76.1 17.19C75.54 17.19 75.1 17.3 74.78 17.52C74.48 17.72 74.33 18 74.33 18.36C74.33 18.72 74.47 19 74.75 19.2C75.05 19.38 75.56 19.55 76.28 19.71L78.35 20.1C80.39 20.48 81.41 21.58 81.41 23.4C81.41 24.14 81.19 24.8 80.75 25.38C80.33 25.96 79.74 26.42 78.98 26.76C78.22 27.08 77.33 27.24 76.31 27.24ZM83.43 27V15.09H86.31V16.35C87.17 15.35 88.27 14.85 89.61 14.85C90.39 14.85 91.1 15.01 91.74 15.33C92.4 15.65 92.94 16.11 93.36 16.71C94.24 15.47 95.45 14.85 96.99 14.85C98.37 14.85 99.48 15.3 100.32 16.2C101.16 17.08 101.58 18.25 101.58 19.71V27H98.7V20.13C98.7 19.29 98.49 18.63 98.07 18.15C97.65 17.67 97.08 17.43 96.36 17.43C95.78 17.43 95.27 17.59 94.83 17.91C94.41 18.21 94.1 18.63 93.9 19.17C93.92 19.35 93.93 19.53 93.93 19.71V27H91.05V20.13C91.05 19.29 90.84 18.63 90.42 18.15C90.02 17.67 89.46 17.43 88.74 17.43C88.22 17.43 87.74 17.56 87.3 17.82C86.88 18.08 86.55 18.45 86.31 18.93V27H83.43ZM103.94 27V9.96H106.82V20.04L111.68 15.09H115.16L109.61 20.58L115.52 27H111.83L106.82 21.45V27H103.94ZM122.29 27.24C121.05 27.24 119.95 26.97 118.99 26.43C118.05 25.89 117.31 25.15 116.77 24.21C116.23 23.27 115.96 22.21 115.96 21.03C115.96 19.85 116.22 18.8 116.74 17.88C117.28 16.94 118.01 16.2 118.93 15.66C119.85 15.12 120.89 14.85 122.05 14.85C123.17 14.85 124.16 15.1 125.02 15.6C125.9 16.1 126.58 16.8 127.06 17.7C127.56 18.58 127.81 19.6 127.81 20.76C127.81 21.08 127.78 21.42 127.72 21.78H118.81C118.93 22.68 119.31 23.4 119.95 23.94C120.61 24.46 121.43 24.72 122.41 24.72C123.11 24.72 123.76 24.59 124.36 24.33C124.96 24.05 125.45 23.68 125.83 23.22L127.57 25.02C126.97 25.72 126.2 26.27 125.26 26.67C124.34 27.05 123.35 27.24 122.29 27.24ZM118.87 19.74H124.84C124.76 18.98 124.47 18.38 123.97 17.94C123.47 17.48 122.82 17.25 122.02 17.25C121.24 17.25 120.58 17.47 120.04 17.91C119.52 18.33 119.13 18.94 118.87 19.74Z" fill="#F8FAFC"/>
<circle cx="129" cy="25" r="3" fill="#22D3EE"/>
</svg>
